<svg width="189" height="38" viewBox="0 0 189 38" fill="none" xmlns="http://www.w3.org/2000/svg">
<g clip-path="url(#clip0_210_65)">
<path d="M18.9184 34.1431C17.2456 35.5552 15.6366 36.5458 14.0843 37.1289C12.539 37.712 10.8804 38 9.10126 38C6.17383 38 3.92687 37.2904 2.35329 35.8713C0.786791 34.4592 0 32.6467 0 30.4407C0 29.1481 0.297705 27.9678 0.893114 26.9C1.48852 25.8321 2.26823 24.975 3.22514 24.3287C4.18913 23.6824 5.26654 23.1906 6.47153 22.8604C7.35756 22.6286 8.69723 22.4038 10.4835 22.186C14.1339 21.7574 16.8132 21.2376 18.5357 20.6404C18.5498 20.0292 18.564 19.6358 18.564 19.4742C18.564 17.6476 18.1387 16.369 17.2811 15.6173C16.1257 14.6057 14.4103 14.0998 12.1421 14.0998C10.0156 14.0998 8.44914 14.4722 7.43553 15.2098C6.42192 15.9475 5.67766 17.2542 5.18857 19.1229L0.772615 18.5258C1.17664 16.65 1.83585 15.1396 2.75731 13.9874C3.67878 12.8353 5.00428 11.9501 6.74797 11.3248C8.48459 10.7066 10.5047 10.3905 12.7942 10.3905C15.0837 10.3905 16.9196 10.6574 18.3372 11.1843C19.7619 11.7182 20.8039 12.3857 21.4702 13.1865C22.1436 13.9945 22.6043 15.0061 22.8736 16.2355C23.0225 17.0013 23.1005 18.3712 23.1005 20.3664V26.338C23.1005 30.4969 23.1997 33.1314 23.3911 34.2344C23.5825 35.3374 23.9652 36.3982 24.5323 37.4099H19.8115C19.3437 36.4825 19.0389 35.3936 18.9113 34.1501L18.9184 34.1431ZM18.5428 24.146C16.9054 24.8135 14.4458 25.3755 11.1639 25.8392C9.30682 26.1061 7.9955 26.4012 7.22288 26.7314C6.45736 27.0686 5.86195 27.5463 5.44374 28.1856C5.02554 28.8249 4.81289 29.5345 4.81289 30.3143C4.81289 31.5086 5.26654 32.5062 6.18092 33.3001C7.0953 34.0939 8.42788 34.4944 10.1858 34.4944C11.9436 34.4944 13.4676 34.115 14.8285 33.3633C16.1824 32.6116 17.1818 31.5788 17.8127 30.2651C18.2947 29.2535 18.5428 27.7641 18.5428 25.79V24.146Z" fill="white"/>
<path d="M31.4221 6.09096V0.948418H35.9373V6.09096H31.4221ZM31.4221 37.4028V10.9946H35.9373V37.4028H31.4221Z" fill="white"/>
<path d="M44.0461 37.4028V10.9946H48.1077V14.9991C49.1497 13.1303 50.0995 11.8939 50.9784 11.2967C51.8573 10.6996 52.8213 10.3975 53.8775 10.3975C55.4015 10.3975 56.9467 10.8822 58.5203 11.8377L56.9609 15.9896C55.8551 15.3433 54.7493 15.0201 53.6507 15.0201C52.6654 15.0201 51.7794 15.3152 50.9926 15.9053C50.2058 16.4955 49.6458 17.3104 49.3127 18.3572C48.8094 19.9519 48.5613 21.6872 48.5613 23.577V37.4028H44.0461Z" fill="white"/>
<path d="M62.2415 0.948418H72.5548V13.58C73.5755 12.5191 74.738 11.7253 76.028 11.1913C77.3252 10.6644 78.757 10.3975 80.3306 10.3975C83.577 10.3975 86.2634 11.5567 88.3828 13.868C90.5092 16.1793 91.5725 19.5023 91.5725 23.8299C91.5725 26.7173 91.0905 29.2535 90.1194 31.4524C89.1483 33.6513 87.8086 35.2882 86.0933 36.3771C84.3779 37.459 82.4783 38.007 80.3873 38.007C78.594 38.007 76.9566 37.6277 75.4681 36.8619C74.3481 36.2647 73.1289 35.1477 71.8035 33.5038V37.4099H62.2415V0.948418ZM72.4768 24.125C72.4768 26.3942 72.9092 28.0381 73.7669 29.0638C74.6316 30.0825 75.7161 30.5953 77.0416 30.5953C78.2679 30.5953 79.2886 30.0965 80.1179 29.0919C80.9472 28.0873 81.3654 26.4012 81.3654 24.0336C81.3654 21.9471 80.9543 20.4086 80.1463 19.4321C79.3311 18.4555 78.353 17.9638 77.1976 17.9638C75.8083 17.9638 74.6742 18.4766 73.7952 19.4953C72.9163 20.514 72.4768 22.0595 72.4768 24.132V24.125Z" fill="white"/>
<path d="M98.363 0.948418H108.598V37.4028H98.363V0.948418Z" fill="white"/>
<path d="M144.741 37.4029H135.208V33.1244C133.783 34.8808 132.351 36.1313 130.905 36.883C129.459 37.6277 127.68 38 125.575 38C122.761 38 120.563 37.171 118.961 35.499C117.367 33.834 116.566 31.2697 116.566 27.7992V10.9946H126.829V25.516C126.829 27.174 127.141 28.3542 127.758 29.0497C128.375 29.7452 129.246 30.0965 130.366 30.0965C131.586 30.0965 132.585 29.6328 133.365 28.7055C134.144 27.7781 134.527 26.1131 134.527 23.7035V10.9946H144.741V37.4029Z" fill="white"/>
<path d="M182.061 26.7103H161.583C161.767 28.3331 162.214 29.5485 162.915 30.3424C163.901 31.4875 165.191 32.0566 166.778 32.0566C167.785 32.0566 168.735 31.8107 169.642 31.3119C170.195 31.0028 170.79 30.4407 171.421 29.6469L181.486 30.5672C179.948 33.2228 178.091 35.1196 175.915 36.2718C173.739 37.4239 170.62 38 166.559 38C163.029 38 160.25 37.5082 158.23 36.5247C156.21 35.5411 154.53 33.9745 153.197 31.8247C151.865 29.682 151.206 27.1529 151.206 24.2514C151.206 20.1205 152.538 16.7835 155.21 14.2263C157.883 11.6761 161.561 10.3975 166.261 10.3975C170.074 10.3975 173.087 10.9736 175.298 12.1117C177.503 13.2568 179.183 14.9148 180.338 17.0856C181.493 19.2564 182.068 22.0876 182.068 25.5652V26.7103H182.061ZM171.669 21.8628C171.471 19.9098 170.939 18.5047 170.074 17.6617C169.21 16.8186 168.083 16.3971 166.672 16.3971C165.049 16.3971 163.752 17.0364 162.781 18.308C162.164 19.1019 161.767 20.2891 161.604 21.8628H171.662H171.669Z" fill="white"/>
<path d="M177.553 5.21982C178.035 5.68349 178.672 5.95748 179.346 5.98558C180.111 5.98558 180.537 5.64134 180.537 5.11444C180.537 4.58754 180.097 4.37678 179.466 4.11684L178.531 3.70937C177.829 3.42836 177.134 2.90146 177.134 1.90386C177.134 0.821962 178.098 -0.00702667 179.431 -0.00702667C180.225 -0.00702667 180.983 0.302088 181.55 0.857089L180.919 1.62285C180.515 1.25051 179.984 1.04677 179.431 1.03975C178.779 1.03975 178.361 1.34184 178.361 1.84063C178.361 2.33943 178.885 2.56424 179.452 2.79608L180.374 3.18247C181.189 3.52671 181.77 4.03254 181.77 5.02311C181.77 6.12609 180.849 7.03938 179.325 7.03938C178.403 7.03938 177.517 6.68109 176.865 6.04178L177.553 5.21982ZM182.932 0.119429H184.258L185.491 3.46349L185.945 4.74912H186.002L186.455 3.46349L187.66 0.119429H189V6.91292H187.859V3.8007C187.859 3.16842 187.951 2.26215 188.015 1.64393H187.972L187.398 3.20355L186.214 6.28767H185.654L184.471 3.20355L183.925 1.65798H183.911C183.96 2.28323 184.06 3.18247 184.06 3.81475V6.92697H182.932V0.126455V0.119429Z" fill="white"/>
</g>
<defs>
<clipPath id="clip0_210_65">
<rect width="189" height="38" fill="white"/>
</clipPath>
</defs>
</svg>
