<svg width="45" height="45" viewBox="0 0 45 45" fill="none" xmlns="http://www.w3.org/2000/svg">
<circle cx="22.5" cy="22.5" r="18.5" fill="#E1FFE4"/>
<path d="M12.6562 22.5C12.4607 22.4997 12.2672 22.5402 12.0881 22.619C11.9091 22.6977 11.7484 22.8129 11.6164 22.9573C11.4844 23.1016 11.384 23.2719 11.3216 23.4573C11.2591 23.6426 11.236 23.839 11.2537 24.0338C11.7787 29.7975 16.035 34.6875 22.5 34.6875C28.965 34.6875 33.2194 29.7975 33.7462 24.0338C33.764 23.839 33.7409 23.6426 33.6784 23.4573C33.616 23.2719 33.5156 23.1016 33.3836 22.9573C33.2516 22.8129 33.0909 22.6977 32.9119 22.619C32.7328 22.5402 32.5393 22.4997 32.3438 22.5H12.6562ZM22.5 31.875C18.2681 31.875 15.2419 29.1 14.31 25.3125H30.69C29.76 29.1 26.7337 31.875 22.5 31.875ZM28.5938 16.4062C27.8288 16.4062 27.2625 16.9444 27.1725 17.55C27.1178 17.919 26.9188 18.2511 26.6192 18.4734C26.3196 18.6956 25.944 18.7897 25.575 18.735C25.206 18.6803 24.8739 18.4813 24.6516 18.1817C24.4294 17.8821 24.3353 17.5065 24.39 17.1375C24.6938 15.0938 26.4956 13.5938 28.5938 13.5938C30.6919 13.5938 32.4938 15.0938 32.7975 17.1375C32.8522 17.5065 32.7581 17.8821 32.5359 18.1817C32.3136 18.4813 31.9815 18.6803 31.6125 18.735C31.2435 18.7897 30.8679 18.6956 30.5683 18.4734C30.2687 18.2511 30.0697 17.919 30.015 17.55C29.925 16.9444 29.3587 16.4062 28.5938 16.4062ZM14.985 17.55C15.075 16.9444 15.6412 16.4062 16.4062 16.4062C17.1713 16.4062 17.7375 16.9444 17.8275 17.55C17.8822 17.919 18.0812 18.2511 18.3808 18.4734C18.6804 18.6956 19.056 18.7897 19.425 18.735C19.794 18.6803 20.1261 18.4813 20.3484 18.1817C20.5706 17.8821 20.6647 17.5065 20.61 17.1375C20.3081 15.0938 18.5044 13.5938 16.4062 13.5938C14.3081 13.5938 12.5062 15.0938 12.2025 17.1375C12.1478 17.5065 12.2419 17.8821 12.4641 18.1817C12.6864 18.4813 13.0185 18.6803 13.3875 18.735C13.7565 18.7897 14.1321 18.6956 14.4317 18.4734C14.7313 18.2511 14.9303 17.919 14.985 17.55ZM22.5 3.75C12.1444 3.75 3.75 12.1444 3.75 22.5C3.75 32.8556 12.1444 41.25 22.5 41.25C32.8556 41.25 41.25 32.8556 41.25 22.5C41.25 12.1444 32.8556 3.75 22.5 3.75ZM6.5625 22.5C6.5625 18.2731 8.24162 14.2193 11.2305 11.2305C14.2193 8.24162 18.2731 6.5625 22.5 6.5625C26.7269 6.5625 30.7807 8.24162 33.7695 11.2305C36.7584 14.2193 38.4375 18.2731 38.4375 22.5C38.4375 26.7269 36.7584 30.7807 33.7695 33.7695C30.7807 36.7584 26.7269 38.4375 22.5 38.4375C18.2731 38.4375 14.2193 36.7584 11.2305 33.7695C8.24162 30.7807 6.5625 26.7269 6.5625 22.5Z" fill="#00BF11"/>
</svg>
