<svg width="45" height="45" viewBox="0 0 45 45" fill="none" xmlns="http://www.w3.org/2000/svg">
<circle cx="22.5" cy="22.5" r="18.5" fill="#FFFBEB"/>
<path d="M19.7031 19.7031C19.7031 20.0124 19.6422 20.3187 19.5238 20.6045C19.4055 20.8903 19.2319 21.15 19.0132 21.3687C18.7945 21.5874 18.5348 21.7609 18.2491 21.8793C17.9633 21.9977 17.657 22.0586 17.3477 22.0586C17.0383 22.0586 16.732 21.9977 16.4463 21.8793C16.1605 21.7609 15.9008 21.5874 15.6821 21.3687C15.4634 21.15 15.2899 20.8903 15.1715 20.6045C15.0531 20.3187 14.9922 20.0124 14.9922 19.7031C14.9922 19.0784 15.2404 18.4793 15.6821 18.0376C16.1238 17.5958 16.7229 17.3477 17.3477 17.3477C17.9724 17.3477 18.5715 17.5958 19.0132 18.0376C19.455 18.4793 19.7031 19.0784 19.7031 19.7031ZM28.3398 22.0586C28.9646 22.0586 29.5637 21.8104 30.0054 21.3687C30.4471 20.927 30.6953 20.3278 30.6953 19.7031C30.6953 19.0784 30.4471 18.4793 30.0054 18.0376C29.5637 17.5958 28.9646 17.3477 28.3398 17.3477C27.7151 17.3477 27.116 17.5958 26.6743 18.0376C26.2325 18.4793 25.9844 19.0784 25.9844 19.7031C25.9844 20.3278 26.2325 20.927 26.6743 21.3687C27.116 21.8104 27.7151 22.0586 28.3398 22.0586ZM16.5625 25.9844C16.146 25.9844 15.7466 26.1498 15.4521 26.4443C15.1576 26.7388 14.9922 27.1382 14.9922 27.5547C14.9922 27.9712 15.1576 28.3706 15.4521 28.6651C15.7466 28.9596 16.146 29.125 16.5625 29.125H29.125C29.5415 29.125 29.9409 28.9596 30.2354 28.6651C30.5299 28.3706 30.6953 27.9712 30.6953 27.5547C30.6953 27.1382 30.5299 26.7388 30.2354 26.4443C29.9409 26.1498 29.5415 25.9844 29.125 25.9844H16.5625ZM22.8438 4C25.3183 4 27.7687 4.48741 30.0549 5.43439C32.3412 6.38138 34.4185 7.7694 36.1683 9.51921C37.9181 11.269 39.3061 13.3463 40.2531 15.6326C41.2001 17.9188 41.6875 20.3692 41.6875 22.8438C41.6875 25.3183 41.2001 27.7687 40.2531 30.0549C39.3061 32.3412 37.9181 34.4185 36.1683 36.1683C34.4185 37.9181 32.3412 39.3061 30.0549 40.2531C27.7687 41.2001 25.3183 41.6875 22.8438 41.6875C17.8461 41.6875 13.0531 39.7022 9.51921 36.1683C5.98532 32.6344 4 27.8414 4 22.8438C4 17.8461 5.98532 13.0531 9.51921 9.51921C13.0531 5.98532 17.8461 4 22.8438 4ZM22.8438 7.14062C18.679 7.14062 14.6849 8.79506 11.74 11.74C8.79506 14.6849 7.14062 18.679 7.14062 22.8438C7.14062 27.0085 8.79506 31.0026 11.74 33.9475C14.6849 36.8924 18.679 38.5469 22.8438 38.5469C27.0085 38.5469 31.0026 36.8924 33.9475 33.9475C36.8924 31.0026 38.5469 27.0085 38.5469 22.8438C38.5469 18.679 36.8924 14.6849 33.9475 11.74C31.0026 8.79506 27.0085 7.14062 22.8438 7.14062Z" fill="#FECE00"/>
</svg>
