<svg width="45" height="45" viewBox="0 0 45 45" fill="none" xmlns="http://www.w3.org/2000/svg">
<circle cx="22.5" cy="22.5" r="18.5" fill="#FFF0EB"/>
<path d="M18.75 17.3119C18.75 16.6903 18.5031 16.0941 18.0635 15.6546C17.624 15.2151 17.0279 14.9681 16.4062 14.9681C15.7846 14.9681 15.1885 15.2151 14.749 15.6546C14.3094 16.0941 14.0625 16.6903 14.0625 17.3119C14.0625 17.9335 14.3094 18.5296 14.749 18.9692C15.1885 19.4087 15.7846 19.6556 16.4062 19.6556C17.0279 19.6556 17.624 19.4087 18.0635 18.9692C18.5031 18.5296 18.75 17.9335 18.75 17.3119ZM28.5938 14.9681C28.9015 14.9681 29.2063 15.0288 29.4907 15.1465C29.775 15.2643 30.0334 15.437 30.251 15.6546C30.4687 15.8722 30.6413 16.1306 30.7591 16.415C30.8769 16.6993 30.9375 17.0041 30.9375 17.3119C30.9375 17.6197 30.8769 17.9244 30.7591 18.2088C30.6413 18.4932 30.4687 18.7515 30.251 18.9692C30.0334 19.1868 29.775 19.3594 29.4907 19.4772C29.2063 19.595 28.9015 19.6556 28.5938 19.6556C27.9721 19.6556 27.376 19.4087 26.9365 18.9692C26.4969 18.5296 26.25 17.9335 26.25 17.3119C26.25 16.6903 26.4969 16.0941 26.9365 15.6546C27.376 15.2151 27.9721 14.9681 28.5938 14.9681ZM17.3062 30.4969C17.1933 30.6471 17.0514 30.7731 16.8889 30.8675C16.7264 30.962 16.5466 31.0228 16.3601 31.0466C16.1737 31.0704 15.9844 31.0565 15.8034 31.0059C15.6224 30.9552 15.4534 30.8688 15.3064 30.7517C15.1594 30.6347 15.0373 30.4893 14.9474 30.3243C14.8575 30.1592 14.8016 29.9778 14.783 29.7908C14.7644 29.6038 14.7835 29.415 14.8391 29.2354C14.8947 29.0559 14.9858 28.8894 15.1069 28.7456C15.9908 27.6325 17.1149 26.7336 18.3951 26.116C19.6753 25.4985 21.0786 25.1783 22.5 25.1794C23.9214 25.1783 25.3247 25.4985 26.6049 26.116C27.8851 26.7336 29.0092 27.6325 29.8931 28.7456C30.0142 28.8894 30.1052 29.0559 30.1609 29.2354C30.2165 29.415 30.2356 29.6038 30.217 29.7908C30.1984 29.9778 30.1425 30.1592 30.0526 30.3243C29.9627 30.4893 29.8406 30.6347 29.6936 30.7517C29.5466 30.8688 29.3776 30.9552 29.1966 31.0059C29.0156 31.0565 28.8263 31.0704 28.6398 31.0466C28.4534 31.0228 28.2736 30.962 28.1111 30.8675C27.9486 30.7731 27.8067 30.6471 27.6938 30.4969C27.0729 29.7149 26.2832 29.0836 25.3837 28.6501C24.4843 28.2166 23.4984 27.9922 22.5 27.9938C21.5014 27.9925 20.5154 28.2171 19.616 28.6509C18.7165 29.0848 17.9269 29.7165 17.3062 30.4988" fill="#FF3300"/>
<path fill-rule="evenodd" clip-rule="evenodd" d="M22.5 3.75C12.1444 3.75 3.75 12.1444 3.75 22.5C3.75 32.8556 12.1444 41.25 22.5 41.25C32.8556 41.25 41.25 32.8556 41.25 22.5C41.25 12.1444 32.8556 3.75 22.5 3.75ZM6.5625 22.5C6.5625 18.2731 8.24162 14.2193 11.2305 11.2305C14.2193 8.24162 18.2731 6.5625 22.5 6.5625C26.7269 6.5625 30.7807 8.24162 33.7695 11.2305C36.7584 14.2193 38.4375 18.2731 38.4375 22.5C38.4375 26.7269 36.7584 30.7807 33.7695 33.7695C30.7807 36.7584 26.7269 38.4375 22.5 38.4375C18.2731 38.4375 14.2193 36.7584 11.2305 33.7695C8.24162 30.7807 6.5625 26.7269 6.5625 22.5Z" fill="#FF3300"/>
</svg>
