<svg width="41" height="41" viewBox="0 0 41 41" fill="none" xmlns="http://www.w3.org/2000/svg">
<rect x="0.5" y="0.5" width="40" height="40" rx="5.5" fill="white" stroke="#FF3300"/>
<path d="M29.1604 20.73C29.8255 20.0659 30.3327 19.2607 30.6446 18.3742C30.9565 17.4876 31.0651 16.5422 30.9623 15.608C30.8596 14.6738 30.5482 13.7746 30.0511 12.977C29.5539 12.1794 28.8839 11.5037 28.0904 11C26.0804 9.66999 23.3904 9.65999 21.3604 10.97C19.6004 12.1 18.6304 13.86 18.4604 15.68C18.3304 17 17.8304 18.23 16.9104 19.15L16.8804 19.18C15.7204 20.34 15.7204 22.11 16.8104 23.19L17.8004 24.18C18.3243 24.7036 19.0347 24.9977 19.7754 24.9977C20.5161 24.9977 21.2265 24.7036 21.7504 24.18C22.7204 23.21 24.0004 22.68 25.3904 22.53C26.7604 22.38 28.1004 21.78 29.1604 20.73ZM15.2604 27.86C15.5304 28.42 15.4404 29.1 14.9704 29.56C14.7669 29.7666 14.5074 29.9093 14.2239 29.9707C13.9404 30.032 13.6452 30.0092 13.3745 29.9051C13.1037 29.8011 12.8692 29.6203 12.6998 29.3849C12.5303 29.1495 12.4332 28.8698 12.4204 28.58C12.1307 28.5672 11.8509 28.4701 11.6155 28.3007C11.3801 28.1312 11.1993 27.8967 11.0953 27.626C10.9912 27.3552 10.9685 27.06 11.0298 26.7765C11.0911 26.493 11.2338 26.2335 11.4404 26.03C11.9004 25.57 12.5904 25.47 13.1404 25.74L15.6204 23.31C15.7604 23.5 15.9204 23.72 16.1004 23.9L17.0904 24.89C17.3004 25.09 17.5004 25.26 17.7604 25.41L15.2604 27.86Z" fill="#FF3300"/>
</svg>
